<svg version="1.1" id="Layer_1" xmlns="http://www.w3.org/2000/svg" xmlns:xlink="http://www.w3.org/1999/xlink" x="200px" y="20px"
	 width="350px" height="250px" viewBox="0 0 280 496" enable-background="new 0 0 496 496" xml:space="preserve">
<path fill="#3b0764" opacity="1.000000" stroke="none" 
	d="
M274.980560,267.157776 
	C278.239227,271.677673 278.289246,275.960693 274.846863,279.798218 
	C272.596497,282.306946 269.887268,282.836426 267.117279,278.612549 
	C271.317566,279.850403 272.908752,277.859344 273.485260,274.878021 
	C273.962311,272.410736 272.520538,270.631897 270.457092,269.648346 
	C267.617584,268.294922 265.385376,269.355988 263.573975,271.855713 
	C258.252594,279.199280 260.321686,289.999176 268.571899,297.274597 
	C270.653931,297.260590 271.547058,295.419922 272.907074,294.298615 
	C280.484406,288.051056 288.963928,284.165894 298.990631,284.723114 
	C305.724884,285.097412 311.213074,287.781097 314.340424,294.155029 
	C317.486847,300.567932 317.038696,306.722778 312.861786,312.523376 
	C307.704407,319.685577 300.458679,322.975464 291.836029,323.135590 
	C287.233276,323.221039 283.266174,321.359680 281.315308,316.865082 
	C279.478516,312.633301 279.462891,308.282257 282.671265,304.656738 
	C285.931335,300.972778 290.143585,299.097717 295.184692,299.945068 
	C297.026367,300.254639 298.709656,301.043488 299.091644,303.864777 
	C294.776459,301.837433 291.158661,303.007111 287.861877,305.701843 
	C285.175446,307.897675 284.643463,310.738464 285.786407,313.800171 
	C286.848633,316.645599 289.432404,316.891876 292.055420,316.751099 
	C295.279205,316.578125 298.240112,315.600098 301.013458,313.947327 
	C307.351685,310.170135 310.287994,304.028809 308.550995,298.062286 
	C307.066895,292.964539 301.701538,289.931091 294.291473,290.441284 
	C285.759766,291.028687 278.281189,294.439789 270.849854,299.936188 
	C278.042725,307.541809 276.565308,314.690979 269.084351,321.528473 
	C281.866730,326.803558 294.473907,327.096191 307.067719,324.125824 
	C321.317841,320.764832 335.316589,316.477051 348.898956,310.854156 
	C369.388092,302.371979 390.396149,298.297485 412.072296,306.039917 
	C420.363098,309.001251 428.312927,312.934631 436.362640,316.548676 
	C445.462494,320.634186 454.651764,322.752625 464.348450,318.641571 
	C470.752350,315.926514 474.986694,311.036743 474.457886,306.256866 
	C473.740387,299.771454 469.178986,296.581451 463.532837,294.545135 
	C460.515594,293.456940 457.400757,293.025055 454.200653,293.207611 
	C452.539429,293.302338 450.679382,293.184143 449.827759,294.972778 
	C448.932404,296.853271 450.582062,298.013031 451.472198,299.354370 
	C452.165955,300.399811 453.647217,300.925995 453.572937,302.862579 
	C449.152374,301.929596 446.078033,299.631592 445.868652,295.104065 
	C445.664795,290.695221 449.184631,289.289825 452.796112,288.621094 
	C461.299591,287.046539 469.114319,288.886322 475.603302,294.580811 
	C484.011200,301.959229 482.944885,315.182037 473.521454,321.864380 
	C463.567322,328.923004 452.567963,330.319885 441.208557,326.194916 
	C432.931152,323.189117 424.987213,319.270966 416.863495,315.833069 
	C413.073792,314.229279 409.311340,312.488037 405.150940,311.826569 
	C405.085999,312.310913 404.905365,312.694519 405.027039,312.889008 
	C411.034180,322.490662 409.467102,328.080475 399.293304,333.301819 
	C393.228668,336.414276 386.828461,337.875610 380.000275,337.299133 
	C374.127136,336.803253 369.273010,333.057190 368.602875,328.486542 
	C367.922516,323.846405 370.964478,319.762207 377.075165,317.669342 
	C381.884949,316.022034 386.825348,314.421478 392.475555,318.292236 
	C387.441162,319.387726 382.900452,319.181976 378.986176,321.382446 
	C376.533569,322.761200 373.154327,323.885803 373.892853,327.276550 
	C374.588623,330.471069 377.977936,330.840607 380.870514,330.965729 
	C387.669189,331.259827 393.566498,328.713593 399.035706,324.952393 
	C401.927338,322.963776 401.789612,320.726105 399.540039,318.298035 
	C394.221039,312.557037 387.482056,311.826538 380.246124,312.727661 
	C363.642548,314.795410 347.817841,319.985840 331.886597,324.752197 
	C322.808472,327.468231 313.793457,330.283051 304.323395,331.599884 
	C293.791779,333.064331 283.773651,331.807098 273.967957,327.968384 
	C272.262817,327.300842 270.537903,326.683319 268.818512,326.052551 
	C264.945984,324.631836 261.717010,324.997711 259.384094,328.947510 
	C258.451385,330.526672 257.298035,332.285614 253.839035,332.515259 
	C260.481262,322.446289 261.093048,313.366730 251.522369,305.609406 
	C242.843323,310.250336 241.931290,315.825928 247.191467,332.291534 
	C245.058990,332.603302 244.048599,331.003815 243.359192,329.771301 
	C240.226990,324.171417 235.787094,324.705231 230.927200,326.814484 
	C221.287781,330.998077 211.263123,333.087555 200.750366,332.040314 
	C186.896072,330.660217 173.851776,325.933655 160.660416,321.905457 
	C147.594513,317.915588 134.435547,314.384460 120.871727,312.617401 
	C113.800545,311.696167 107.206726,312.763397 102.255783,318.618835 
	C100.906555,320.214539 99.621796,322.063293 101.778023,323.814972 
	C108.059052,328.917542 115.049995,332.054718 123.403343,330.731567 
	C125.644791,330.376526 127.768623,329.467804 128.138458,326.965637 
	C128.480164,324.653961 126.569740,323.418488 124.899628,322.335907 
	C120.493088,319.479645 115.333763,319.140991 109.787254,318.611725 
	C116.426300,313.560699 130.252213,317.325684 132.885864,324.300903 
	C134.983719,329.857056 130.888474,335.904083 123.666435,337.039673 
	C113.747444,338.599304 104.799736,335.735596 97.082245,329.475525 
	C92.854301,326.046021 92.264633,320.613892 95.029068,315.916199 
	C95.832466,314.551025 96.803185,313.284302 98.055840,311.446167 
	C88.113541,313.701996 79.766983,318.240234 71.153244,322.067169 
	C63.977978,325.255035 56.814289,328.268646 48.746758,328.375244 
	C42.551712,328.457092 36.915138,326.691711 31.571981,323.824646 
	C24.538275,320.050507 20.274221,314.271942 20.872210,306.100128 
	C21.486528,297.705109 26.659229,292.480103 34.438969,289.910980 
	C39.010113,288.401398 43.675602,287.270721 48.633385,288.467987 
	C52.408737,289.379730 56.117718,290.446716 56.130795,295.042328 
	C56.144299,299.789215 52.571323,301.690765 48.627781,303.055115 
	C47.569782,301.375732 48.884510,301.038177 49.519279,300.437073 
	C51.091160,298.948639 53.160912,297.474762 52.200211,295.040314 
	C51.304008,292.769287 48.840652,293.350250 46.901272,293.222382 
	C42.975666,292.963593 39.282639,293.956329 35.776943,295.590973 
	C31.085909,297.778320 27.605425,301.341675 27.594006,306.623291 
	C27.583115,311.660339 30.877150,315.186920 35.291142,317.498413 
	C43.663399,321.882751 52.274330,321.901978 60.884716,318.453461 
	C66.601456,316.163940 72.262924,313.677124 77.753929,310.893524 
	C102.299355,298.450531 126.972267,300.075775 151.616196,310.257538 
	C167.368164,316.765594 183.483749,322.085754 200.226791,325.095276 
	C211.131256,327.055328 222.061935,326.103302 232.520294,321.642609 
	C224.887100,311.921509 224.779327,310.457977 231.107895,299.524780 
	C221.903702,294.144104 212.876877,288.441589 201.434296,291.137238 
	C195.092255,292.631317 192.093094,297.553772 193.207352,303.898865 
	C194.544876,311.515350 205.380768,318.537537 212.805389,316.599304 
	C216.823425,315.550415 218.289276,310.259918 215.231567,306.876190 
	C212.038025,303.342102 208.151581,301.455353 203.094391,304.045593 
	C202.704193,301.450012 204.340012,300.675201 206.074203,300.094269 
	C211.394638,298.311920 219.581528,302.575958 221.150070,307.898407 
	C223.264191,315.072083 219.877075,321.574951 212.815933,322.694611 
	C203.939026,324.102081 196.382965,320.977570 190.540909,314.197510 
	C185.874649,308.782013 184.160019,302.644775 186.967087,295.651337 
	C190.428787,287.026978 199.533035,282.939087 210.329239,285.109863 
	C219.112762,286.875916 226.370499,291.350250 232.614883,297.442261 
	C240.128372,292.903870 243.591919,280.893066 239.594299,273.711060 
	C238.194366,271.195953 236.503098,268.662445 233.154663,269.042694 
	C230.595810,269.333282 228.937103,271.302551 228.573883,273.739563 
	C228.068512,277.130402 230.601669,278.654602 234.045242,280.022522 
	C231.046814,282.648499 228.888092,281.895233 227.037430,279.649261 
	C224.057343,276.032654 223.739349,272.091553 226.334335,268.112000 
	C228.879791,264.208344 233.470184,262.787781 237.727203,264.311615 
	C240.685394,265.370514 242.495132,267.853271 245.061188,269.992706 
	C247.525131,267.041718 247.799332,262.838165 250.857910,260.062836 
	C254.444641,262.342773 254.217239,266.832214 256.986450,269.998230 
	C262.090363,264.841766 267.557434,260.296234 274.980560,267.157776 
M238.688782,320.179901 
	C238.091354,314.209686 239.928513,308.871002 243.672195,304.409454 
	C246.574280,300.950867 246.938263,297.931885 244.193008,294.567261 
	C241.280853,297.674713 238.877930,301.320801 235.535843,303.573547 
	C229.121460,307.897186 230.566544,313.725220 234.628952,319.079803 
	C236.052658,320.956360 236.072235,320.941498 238.688782,320.179901 
M269.507172,315.756287 
	C270.813934,312.644562 272.144440,309.419769 269.345154,306.507324 
	C265.606140,302.617126 261.659485,298.926544 257.695984,295.046448 
	C256.595459,297.032776 254.604675,298.986694 256.170013,301.005524 
	C260.915466,307.125671 264.295013,313.646545 263.298462,322.029327 
	C266.596558,320.674408 267.768524,318.446930 269.507172,315.756287 
M253.670029,278.647827 
	C253.561157,273.765533 252.915344,268.995514 250.728302,263.289764 
	C248.335526,273.957764 246.484955,283.354950 250.960739,293.494843 
	C253.615509,288.533661 253.832138,284.082947 253.670029,278.647827 
z"/>
</svg>